<svg xmlns="http://www.w3.org/2000/svg" width="780" height="430" viewBox="0 0 780 430" role="img" aria-labelledby="title desc">
<title id="title">Compositional retrieval recall at ten</title>
<desc id="desc">Recall at ten as more concept attributes are composed. The adapter trained with orthogonality loss improves substantially over the frozen backbone and contrastive-only adapter.</desc>
<style>
.text{fill:#1f2328;font-family:-apple-system,BlinkMacSystemFont,Segoe UI,sans-serif}
.muted{fill:#57606a}.grid{stroke:#d8dee4;stroke-width:1}.axis{stroke:#8c959f;stroke-width:1}
.frozen{stroke:#6e7781;fill:#6e7781}.contrastive{stroke:#0969da;fill:#0969da}
.orth{stroke:#1a7f37;fill:#1a7f37}.series{fill:none;stroke-width:3}
.point{stroke-width:0}.label{font-size:13px}.small{font-size:12px}.title{font-size:17px;font-weight:500}
@media(prefers-color-scheme:dark){.text{fill:#e6edf3}.muted{fill:#9da7b1}.grid{stroke:#30363d}.axis{stroke:#6e7681}.frozen{stroke:#9da7b1;fill:#9da7b1}.contrastive{stroke:#58a6ff;fill:#58a6ff}.orth{stroke:#3fb950;fill:#3fb950}}
</style>
<text class="text title" x="74" y="30">Compositional retrieval from partial attribute sets</text>
<text class="text muted small" x="74" y="50">Higher is better · 1,854-image gallery</text>
<line class="grid" x1="74" y1="372.0" x2="662" y2="372.0"/>
<text class="text muted small" x="62" y="376.0" text-anchor="end">0%</text>
<line class="grid" x1="74" y1="317.1" x2="662" y2="317.1"/>
<text class="text muted small" x="62" y="321.1" text-anchor="end">10%</text>
<line class="grid" x1="74" y1="262.2" x2="662" y2="262.2"/>
<text class="text muted small" x="62" y="266.2" text-anchor="end">20%</text>
<line class="grid" x1="74" y1="207.3" x2="662" y2="207.3"/>
<text class="text muted small" x="62" y="211.3" text-anchor="end">30%</text>
<line class="grid" x1="74" y1="152.4" x2="662" y2="152.4"/>
<text class="text muted small" x="62" y="156.4" text-anchor="end">40%</text>
<line class="grid" x1="74" y1="97.5" x2="662" y2="97.5"/>
<text class="text muted small" x="62" y="101.5" text-anchor="end">50%</text>
<line class="axis" x1="74" y1="70" x2="74" y2="372"/>
<line class="axis" x1="74" y1="372" x2="662" y2="372"/>
<text class="text muted small" x="74.0" y="394" text-anchor="middle">1</text>
<text class="text muted small" x="158.0" y="394" text-anchor="middle">2</text>
<text class="text muted small" x="242.0" y="394" text-anchor="middle">4</text>
<text class="text muted small" x="326.0" y="394" text-anchor="middle">6</text>
<text class="text muted small" x="410.0" y="394" text-anchor="middle">8</text>
<text class="text muted small" x="494.0" y="394" text-anchor="middle">10</text>
<text class="text muted small" x="578.0" y="394" text-anchor="middle">12</text>
<text class="text muted small" x="662.0" y="394" text-anchor="middle">14</text>
<text class="text muted label" x="368.0" y="418" text-anchor="middle">Composed attributes (k)</text>
<text class="text muted label" transform="translate(20 221.0) rotate(-90)" text-anchor="middle">Recall@10</text>
<polyline class="series frozen" points="74.0,357.6 158.0,341.2 242.0,316.4 326.0,294.4 410.0,280.5 494.0,271.1 578.0,261.9 662.0,251.0"/>
<circle class="point frozen" cx="74.0" cy="357.6" r="4"/>
<circle class="point frozen" cx="158.0" cy="341.2" r="4"/>
<circle class="point frozen" cx="242.0" cy="316.4" r="4"/>
<circle class="point frozen" cx="326.0" cy="294.4" r="4"/>
<circle class="point frozen" cx="410.0" cy="280.5" r="4"/>
<circle class="point frozen" cx="494.0" cy="271.1" r="4"/>
<circle class="point frozen" cx="578.0" cy="261.9" r="4"/>
<circle class="point frozen" cx="662.0" cy="251.0" r="4"/>
<text class="text label" x="674" y="255.0">22.0%</text>
<polyline class="series contrastive" points="74.0,348.8 158.0,330.2 242.0,300.0 326.0,270.9 410.0,253.1 494.0,240.7 578.0,231.3 662.0,227.8"/>
<circle class="point contrastive" cx="74.0" cy="348.8" r="4"/>
<circle class="point contrastive" cx="158.0" cy="330.2" r="4"/>
<circle class="point contrastive" cx="242.0" cy="300.0" r="4"/>
<circle class="point contrastive" cx="326.0" cy="270.9" r="4"/>
<circle class="point contrastive" cx="410.0" cy="253.1" r="4"/>
<circle class="point contrastive" cx="494.0" cy="240.7" r="4"/>
<circle class="point contrastive" cx="578.0" cy="231.3" r="4"/>
<circle class="point contrastive" cx="662.0" cy="227.8" r="4"/>
<text class="text label" x="674" y="231.8">26.3%</text>
<polyline class="series orth" points="74.0,350.1 158.0,325.5 242.0,283.4 326.0,238.5 410.0,195.0 494.0,160.7 578.0,130.1 662.0,104.2"/>
<circle class="point orth" cx="74.0" cy="350.1" r="4"/>
<circle class="point orth" cx="158.0" cy="325.5" r="4"/>
<circle class="point orth" cx="242.0" cy="283.4" r="4"/>
<circle class="point orth" cx="326.0" cy="238.5" r="4"/>
<circle class="point orth" cx="410.0" cy="195.0" r="4"/>
<circle class="point orth" cx="494.0" cy="160.7" r="4"/>
<circle class="point orth" cx="578.0" cy="130.1" r="4"/>
<circle class="point orth" cx="662.0" cy="104.2" r="4"/>
<text class="text label" x="674" y="108.2">48.8%</text>
<line class="series frozen" x1="84" y1="66" x2="108" y2="66"/>
<text class="text small" x="116" y="70.0">Frozen backbone</text>
<line class="series contrastive" x1="270" y1="66" x2="294" y2="66"/>
<text class="text small" x="302" y="70.0">Contrastive adapter</text>
<line class="series orth" x1="468" y1="66" x2="492" y2="66"/>
<text class="text small" x="500" y="70.0">+ orthogonality loss</text>
</svg>
