<svg xmlns="http://www.w3.org/2000/svg" width="860" height="430" viewBox="0 0 860 430" role="img" aria-labelledby="title desc">
<title id="title">Compositional retrieval across three training objectives</title>
<desc id="desc">Recall at five as one to fourteen concept attributes are composed. Reverse-ridge orthogonality performs best, followed by group-mean orthogonality and contrastive-only training.</desc>
<style>
.text{fill:#1f2328;font-family:-apple-system,BlinkMacSystemFont,Segoe UI,sans-serif}
.muted{fill:#57606a}.grid{stroke:#d8dee4;stroke-width:1}.axis{stroke:#8c959f;stroke-width:1}
.contrastive{stroke:#6e7781}.point.contrastive{fill:#6e7781}
.groupmean{stroke:#0969da}.point.groupmean{fill:#0969da}
.reverse{stroke:#1a7f37}.point.reverse{fill:#1a7f37}
.series{fill:none;stroke-width:3}.point{stroke-width:0}
.label{font-size:13px}.small{font-size:12px}.title{font-size:17px;font-weight:500}
@media(prefers-color-scheme:dark){.text{fill:#e6edf3}.muted{fill:#9da7b1}.grid{stroke:#30363d}.axis{stroke:#6e7681}.contrastive{stroke:#9da7b1}.point.contrastive{fill:#9da7b1}.groupmean{stroke:#58a6ff}.point.groupmean{fill:#58a6ff}.reverse{stroke:#3fb950}.point.reverse{fill:#3fb950}}
</style>
<text class="text title" x="74" y="30">Compositional retrieval improves with cleaner concept directions</text>
<text class="text muted small" x="74" y="50">278-class dev gallery · 52 query classes · Recall@5</text>
<line class="grid" x1="74" y1="372.0" x2="628" y2="372.0"/>
<text class="text muted small" x="62" y="376.0" text-anchor="end">0%</text>
<line class="grid" x1="74" y1="338.4" x2="628" y2="338.4"/>
<text class="text muted small" x="62" y="342.4" text-anchor="end">10%</text>
<line class="grid" x1="74" y1="304.9" x2="628" y2="304.9"/>
<text class="text muted small" x="62" y="308.9" text-anchor="end">20%</text>
<line class="grid" x1="74" y1="271.3" x2="628" y2="271.3"/>
<text class="text muted small" x="62" y="275.3" text-anchor="end">30%</text>
<line class="grid" x1="74" y1="237.8" x2="628" y2="237.8"/>
<text class="text muted small" x="62" y="241.8" text-anchor="end">40%</text>
<line class="grid" x1="74" y1="204.2" x2="628" y2="204.2"/>
<text class="text muted small" x="62" y="208.2" text-anchor="end">50%</text>
<line class="grid" x1="74" y1="170.7" x2="628" y2="170.7"/>
<text class="text muted small" x="62" y="174.7" text-anchor="end">60%</text>
<line class="grid" x1="74" y1="137.1" x2="628" y2="137.1"/>
<text class="text muted small" x="62" y="141.1" text-anchor="end">70%</text>
<line class="grid" x1="74" y1="103.6" x2="628" y2="103.6"/>
<text class="text muted small" x="62" y="107.6" text-anchor="end">80%</text>
<line class="grid" x1="74" y1="70.0" x2="628" y2="70.0"/>
<text class="text muted small" x="62" y="74.0" text-anchor="end">90%</text>
<line class="axis" x1="74" y1="70" x2="74" y2="372"/>
<line class="axis" x1="74" y1="372" x2="628" y2="372"/>
<text class="text muted small" x="74.0" y="394" text-anchor="middle">1</text>
<text class="text muted small" x="153.1" y="394" text-anchor="middle">2</text>
<text class="text muted small" x="232.3" y="394" text-anchor="middle">4</text>
<text class="text muted small" x="311.4" y="394" text-anchor="middle">6</text>
<text class="text muted small" x="390.6" y="394" text-anchor="middle">8</text>
<text class="text muted small" x="469.7" y="394" text-anchor="middle">10</text>
<text class="text muted small" x="548.9" y="394" text-anchor="middle">12</text>
<text class="text muted small" x="628.0" y="394" text-anchor="middle">14</text>
<text class="text muted label" x="351.0" y="418" text-anchor="middle">Composed attributes (k)</text>
<text class="text muted label" transform="translate(20 221.0) rotate(-90)" text-anchor="middle">Recall@5</text>
<path class="series contrastive" d="M 74.0 337.9 L 153.1 323.1 L 232.3 291.1 L 311.4 271.4 L 390.6 252.9 L 469.7 235.4 L 548.9 230.0 L 628.0 218.2"/>
<circle class="point contrastive" cx="74.0" cy="337.9" r="3.5"/>
<circle class="point contrastive" cx="153.1" cy="323.1" r="3.5"/>
<circle class="point contrastive" cx="232.3" cy="291.1" r="3.5"/>
<circle class="point contrastive" cx="311.4" cy="271.4" r="3.5"/>
<circle class="point contrastive" cx="390.6" cy="252.9" r="3.5"/>
<circle class="point contrastive" cx="469.7" cy="235.4" r="3.5"/>
<circle class="point contrastive" cx="548.9" cy="230.0" r="3.5"/>
<circle class="point contrastive" cx="628.0" cy="218.2" r="3.5"/>
<line class="series contrastive" x1="628" y1="218.2" x2="642" y2="218.2"/>
<text class="text label" x="648" y="216.2">Contrastive only</text>
<text class="text muted small" x="648" y="232.2">45.8% at k=14</text>
<path class="series groupmean" d="M 74.0 331.9 L 153.1 309.6 L 232.3 261.5 L 311.4 223.0 L 390.6 190.8 L 469.7 173.0 L 548.9 148.3 L 628.0 141.3"/>
<rect class="point groupmean" x="70.5" y="328.4" width="7" height="7"/>
<rect class="point groupmean" x="149.6" y="306.1" width="7" height="7"/>
<rect class="point groupmean" x="228.8" y="258.0" width="7" height="7"/>
<rect class="point groupmean" x="307.9" y="219.5" width="7" height="7"/>
<rect class="point groupmean" x="387.1" y="187.3" width="7" height="7"/>
<rect class="point groupmean" x="466.2" y="169.5" width="7" height="7"/>
<rect class="point groupmean" x="545.4" y="144.8" width="7" height="7"/>
<rect class="point groupmean" x="624.5" y="137.8" width="7" height="7"/>
<line class="series groupmean" x1="628" y1="141.3" x2="642" y2="141.3"/>
<text class="text label" x="648" y="139.3">+ group-mean orthogonality</text>
<text class="text muted small" x="648" y="155.3">68.8% at k=14</text>
<path class="series reverse" d="M 74.0 325.2 L 153.1 290.8 L 232.3 240.3 L 311.4 193.2 L 390.6 161.5 L 469.7 131.1 L 548.9 111.7 L 628.0 88.6"/>
<path class="point reverse" d="M 74.0 320.2 L 79.0 325.2 L 74.0 330.2 L 69.0 325.2 Z"/>
<path class="point reverse" d="M 153.1 285.8 L 158.1 290.8 L 153.1 295.8 L 148.1 290.8 Z"/>
<path class="point reverse" d="M 232.3 235.3 L 237.3 240.3 L 232.3 245.3 L 227.3 240.3 Z"/>
<path class="point reverse" d="M 311.4 188.2 L 316.4 193.2 L 311.4 198.2 L 306.4 193.2 Z"/>
<path class="point reverse" d="M 390.6 156.5 L 395.6 161.5 L 390.6 166.5 L 385.6 161.5 Z"/>
<path class="point reverse" d="M 469.7 126.1 L 474.7 131.1 L 469.7 136.1 L 464.7 131.1 Z"/>
<path class="point reverse" d="M 548.9 106.7 L 553.9 111.7 L 548.9 116.7 L 543.9 111.7 Z"/>
<path class="point reverse" d="M 628.0 83.6 L 633.0 88.6 L 628.0 93.6 L 623.0 88.6 Z"/>
<line class="series reverse" x1="628" y1="88.6" x2="642" y2="88.6"/>
<text class="text label" x="648" y="86.6">+ reverse-ridge orthogonality</text>
<text class="text muted small" x="648" y="102.6">84.5% at k=14</text>
</svg>
