<svg xmlns="http://www.w3.org/2000/svg" width="780" height="430" viewBox="0 0 780 430" role="img" aria-labelledby="title desc">
<title id="title">Compositional retrieval recall at ten</title>
<desc id="desc">Recall at ten as more concept attributes are composed. The adapter trained with orthogonality loss improves substantially over the frozen backbone and contrastive-only adapter.</desc>
<style>
.text{fill:#1f2328;font-family:-apple-system,BlinkMacSystemFont,Segoe UI,sans-serif}
.muted{fill:#57606a}.grid{stroke:#d8dee4;stroke-width:1}.axis{stroke:#8c959f;stroke-width:1}
.frozen{stroke:#6e7781}.point.frozen{fill:#6e7781}.contrastive{stroke:#0969da}.point.contrastive{fill:#0969da}
.orth{stroke:#1a7f37}.point.orth{fill:#1a7f37}.series{fill:none;stroke-width:3}
.point{stroke-width:0}.label{font-size:13px}.small{font-size:12px}.title{font-size:17px;font-weight:500}
@media(prefers-color-scheme:dark){.text{fill:#e6edf3}.muted{fill:#9da7b1}.grid{stroke:#30363d}.axis{stroke:#6e7681}.frozen{stroke:#9da7b1}.point.frozen{fill:#9da7b1}.contrastive{stroke:#58a6ff}.point.contrastive{fill:#58a6ff}.orth{stroke:#3fb950}.point.orth{fill:#3fb950}}
</style>
<text class="text title" x="74" y="30">Compositional retrieval from partial attribute sets</text>
<text class="text muted small" x="74" y="50">Higher is better · 278-class dev gallery · 52 query classes with ≥14 attributes</text>
<line class="grid" x1="74" y1="372.0" x2="662" y2="372.0"/>
<text class="text muted small" x="62" y="376.0" text-anchor="end">0%</text>
<line class="grid" x1="74" y1="336.5" x2="662" y2="336.5"/>
<text class="text muted small" x="62" y="340.5" text-anchor="end">10%</text>
<line class="grid" x1="74" y1="300.9" x2="662" y2="300.9"/>
<text class="text muted small" x="62" y="304.9" text-anchor="end">20%</text>
<line class="grid" x1="74" y1="265.4" x2="662" y2="265.4"/>
<text class="text muted small" x="62" y="269.4" text-anchor="end">30%</text>
<line class="grid" x1="74" y1="229.9" x2="662" y2="229.9"/>
<text class="text muted small" x="62" y="233.9" text-anchor="end">40%</text>
<line class="grid" x1="74" y1="194.4" x2="662" y2="194.4"/>
<text class="text muted small" x="62" y="198.4" text-anchor="end">50%</text>
<line class="grid" x1="74" y1="158.8" x2="662" y2="158.8"/>
<text class="text muted small" x="62" y="162.8" text-anchor="end">60%</text>
<line class="grid" x1="74" y1="123.3" x2="662" y2="123.3"/>
<text class="text muted small" x="62" y="127.3" text-anchor="end">70%</text>
<line class="grid" x1="74" y1="87.8" x2="662" y2="87.8"/>
<text class="text muted small" x="62" y="91.8" text-anchor="end">80%</text>
<line class="axis" x1="74" y1="70" x2="74" y2="372"/>
<line class="axis" x1="74" y1="372" x2="662" y2="372"/>
<text class="text muted small" x="74.0" y="394" text-anchor="middle">1</text>
<text class="text muted small" x="158.0" y="394" text-anchor="middle">2</text>
<text class="text muted small" x="242.0" y="394" text-anchor="middle">4</text>
<text class="text muted small" x="326.0" y="394" text-anchor="middle">6</text>
<text class="text muted small" x="410.0" y="394" text-anchor="middle">8</text>
<text class="text muted small" x="494.0" y="394" text-anchor="middle">10</text>
<text class="text muted small" x="578.0" y="394" text-anchor="middle">12</text>
<text class="text muted small" x="662.0" y="394" text-anchor="middle">14</text>
<text class="text muted label" x="368.0" y="418" text-anchor="middle">Composed attributes (k)</text>
<text class="text muted label" transform="translate(20 221.0) rotate(-90)" text-anchor="middle">Recall@10</text>
<path class="series frozen" d="M 74.0 310.5 L 158.0 280.6 L 242.0 237.9 L 326.0 216.0 L 410.0 201.8 L 494.0 195.2 L 578.0 180.4 L 662.0 177.0"/>
<text class="text label" x="674" y="181.0">54.9%</text>
<path class="series contrastive" d="M 74.0 313.1 L 158.0 282.9 L 242.0 246.5 L 326.0 218.3 L 410.0 196.3 L 494.0 178.1 L 578.0 161.0 L 662.0 167.0"/>
<text class="text label" x="674" y="171.0">57.7%</text>
<path class="series orth" d="M 74.0 299.4 L 158.0 263.8 L 242.0 203.5 L 326.0 162.2 L 410.0 132.3 L 494.0 112.4 L 578.0 103.3 L 662.0 97.0"/>
<text class="text label" x="674" y="101.0">77.4%</text>
<line class="series frozen" x1="84" y1="66" x2="108" y2="66"/>
<text class="text small" x="116" y="70.0">Frozen backbone</text>
<line class="series contrastive" x1="270" y1="66" x2="294" y2="66"/>
<text class="text small" x="302" y="70.0">Contrastive adapter</text>
<line class="series orth" x1="468" y1="66" x2="492" y2="66"/>
<text class="text small" x="500" y="70.0">+ orthogonality loss</text>
</svg>
