<svg xmlns="http://www.w3.org/2000/svg" width="1120" height="448" viewBox="0 0 1120 448" role="img" aria-labelledby="title desc">
<title id="title">Compositional and ordinary retrieval across three training objectives</title>
<desc id="desc">Reverse-ridge orthogonality substantially improves compositional retrieval while retaining ordinary image-text retrieval performance.</desc>
<style>
.text{fill:#1f2328;font-family:-apple-system,BlinkMacSystemFont,Segoe UI,sans-serif}
.muted{fill:#57606a}.grid{stroke:#d8dee4;stroke-width:1}.axis{stroke:#8c959f;stroke-width:1}
.contrastive{stroke:#6e7781}.point.contrastive{fill:#6e7781}
.groupmean{stroke:#0969da}.point.groupmean{fill:#0969da}
.reverse{stroke:#1a7f37}.point.reverse{fill:#1a7f37}
.band{stroke:none;fill-opacity:.12}.band.contrastive{fill:#6e7781}
.band.groupmean{fill:#0969da}.band.reverse{fill:#1a7f37}
.series{fill:none;stroke-width:3}.point{stroke-width:0}
.bar{fill-opacity:.16;stroke-width:2}.bar.contrastive{fill:#6e7781}
.bar.groupmean{fill:#0969da}.bar.reverse{fill:#1a7f37}
.label{font-size:13px}.small{font-size:12px}.title{font-size:17px;font-weight:500}
@media(prefers-color-scheme:dark){.text{fill:#e6edf3}.muted{fill:#9da7b1}.grid{stroke:#30363d}.axis{stroke:#6e7681}.contrastive{stroke:#9da7b1}.point.contrastive{fill:#9da7b1}.bar.contrastive{fill:#9da7b1}.groupmean{stroke:#58a6ff}.point.groupmean{fill:#58a6ff}.bar.groupmean{fill:#58a6ff}.reverse{stroke:#3fb950}.point.reverse{fill:#3fb950}.bar.reverse{fill:#3fb950}}
</style>
<text class="text title" x="74" y="30">Compositional retrieval</text>
<text class="text muted small" x="74" y="50">278-class dev gallery · exhaustive labels · mean ± s.d. over 5 seeds</text>
<text class="text title" x="820" y="30">Ordinary image–text retrieval</text>
<text class="text muted small" x="820" y="50">3,914 dev pairs · mean ± s.d. over 5 matched seeds</text>
<line class="grid" x1="74" y1="372.0" x2="620" y2="372.0"/>
<line class="grid" x1="820" y1="372.0" x2="1100" y2="372.0"/>
<text class="text muted small" x="62" y="376.0" text-anchor="end">0%</text>
<line class="grid" x1="74" y1="311.6" x2="620" y2="311.6"/>
<line class="grid" x1="820" y1="311.6" x2="1100" y2="311.6"/>
<text class="text muted small" x="62" y="315.6" text-anchor="end">20%</text>
<line class="grid" x1="74" y1="251.2" x2="620" y2="251.2"/>
<line class="grid" x1="820" y1="251.2" x2="1100" y2="251.2"/>
<text class="text muted small" x="62" y="255.2" text-anchor="end">40%</text>
<line class="grid" x1="74" y1="190.8" x2="620" y2="190.8"/>
<line class="grid" x1="820" y1="190.8" x2="1100" y2="190.8"/>
<text class="text muted small" x="62" y="194.8" text-anchor="end">60%</text>
<line class="grid" x1="74" y1="130.4" x2="620" y2="130.4"/>
<line class="grid" x1="820" y1="130.4" x2="1100" y2="130.4"/>
<text class="text muted small" x="62" y="134.4" text-anchor="end">80%</text>
<line class="grid" x1="74" y1="70.0" x2="620" y2="70.0"/>
<line class="grid" x1="820" y1="70.0" x2="1100" y2="70.0"/>
<text class="text muted small" x="62" y="74.0" text-anchor="end">100%</text>
<line class="axis" x1="74" y1="70" x2="74" y2="372"/>
<line class="axis" x1="74" y1="372" x2="620" y2="372"/>
<line class="axis" x1="820" y1="70" x2="820" y2="372"/>
<line class="axis" x1="820" y1="372" x2="1100" y2="372"/>
<text class="text small" x="74.0" y="392" text-anchor="middle">1</text>

<text class="text small" x="102.7" y="392" text-anchor="middle">2</text>

<text class="text small" x="131.5" y="392" text-anchor="middle">3</text>

<text class="text small" x="160.2" y="392" text-anchor="middle">4</text>

<text class="text small" x="188.9" y="392" text-anchor="middle">5</text>

<text class="text small" x="217.7" y="392" text-anchor="middle">6</text>

<text class="text small" x="246.4" y="392" text-anchor="middle">7</text>

<text class="text small" x="275.2" y="392" text-anchor="middle">8</text>

<text class="text small" x="303.9" y="392" text-anchor="middle">9</text>

<text class="text small" x="332.6" y="392" text-anchor="middle">10</text>

<text class="text small" x="361.4" y="392" text-anchor="middle">11</text>
<text class="text muted small" x="361.4" y="408" text-anchor="middle">n=277</text>
<text class="text small" x="390.1" y="392" text-anchor="middle">12</text>
<text class="text muted small" x="390.1" y="408" text-anchor="middle">n=275</text>
<text class="text small" x="418.8" y="392" text-anchor="middle">13</text>
<text class="text muted small" x="418.8" y="408" text-anchor="middle">n=274</text>
<text class="text small" x="447.6" y="392" text-anchor="middle">14</text>
<text class="text muted small" x="447.6" y="408" text-anchor="middle">n=273</text>
<text class="text small" x="476.3" y="392" text-anchor="middle">15</text>
<text class="text muted small" x="476.3" y="408" text-anchor="middle">n=265</text>
<text class="text small" x="505.1" y="392" text-anchor="middle">16</text>
<text class="text muted small" x="505.1" y="408" text-anchor="middle">n=260</text>
<text class="text small" x="533.8" y="392" text-anchor="middle">17</text>
<text class="text muted small" x="533.8" y="408" text-anchor="middle">n=248</text>
<text class="text small" x="562.5" y="392" text-anchor="middle">18</text>
<text class="text muted small" x="562.5" y="408" text-anchor="middle">n=233</text>
<text class="text small" x="591.3" y="392" text-anchor="middle">19</text>
<text class="text muted small" x="591.3" y="408" text-anchor="middle">n=217</text>
<text class="text small" x="620.0" y="392" text-anchor="middle">20</text>
<text class="text muted small" x="620.0" y="408" text-anchor="middle">n=202</text>
<text class="text muted label" x="347.0" y="436" text-anchor="middle">Attributes in query (k)</text>
<text class="text muted label" transform="translate(20 221.0) rotate(-90)" text-anchor="middle">Recall@5</text>
<path class="band contrastive" d="M 74.0 348.5 L 102.7 334.7 L 131.5 328.0 L 160.2 322.6 L 188.9 318.6 L 217.7 317.4 L 246.4 314.9 L 275.2 312.7 L 303.9 310.7 L 332.6 309.4 L 361.4 307.9 L 390.1 307.6 L 418.8 306.9 L 447.6 306.4 L 476.3 305.4 L 505.1 305.5 L 533.8 306.3 L 562.5 306.1 L 591.3 308.1 L 620.0 305.7 L 620.0 314.9 L 591.3 315.0 L 562.5 315.0 L 533.8 313.1 L 505.1 313.0 L 476.3 311.9 L 447.6 312.6 L 418.8 312.0 L 390.1 312.7 L 361.4 313.7 L 332.6 315.3 L 303.9 316.0 L 275.2 317.2 L 246.4 318.6 L 217.7 320.1 L 188.9 321.5 L 160.2 325.5 L 131.5 329.7 L 102.7 336.7 L 74.0 349.8 Z"/>
<path class="series contrastive" d="M 74.0 349.2 L 102.7 335.7 L 131.5 328.9 L 160.2 324.1 L 188.9 320.1 L 217.7 318.8 L 246.4 316.8 L 275.2 314.9 L 303.9 313.4 L 332.6 312.4 L 361.4 310.8 L 390.1 310.2 L 418.8 309.4 L 447.6 309.5 L 476.3 308.6 L 505.1 309.2 L 533.8 309.7 L 562.5 310.5 L 591.3 311.6 L 620.0 310.3"/>
<circle class="point contrastive" cx="74.0" cy="349.2" r="3.5"/>
<circle class="point contrastive" cx="102.7" cy="335.7" r="3.5"/>
<circle class="point contrastive" cx="131.5" cy="328.9" r="3.5"/>
<circle class="point contrastive" cx="160.2" cy="324.1" r="3.5"/>
<circle class="point contrastive" cx="188.9" cy="320.1" r="3.5"/>
<circle class="point contrastive" cx="217.7" cy="318.8" r="3.5"/>
<circle class="point contrastive" cx="246.4" cy="316.8" r="3.5"/>
<circle class="point contrastive" cx="275.2" cy="314.9" r="3.5"/>
<circle class="point contrastive" cx="303.9" cy="313.4" r="3.5"/>
<circle class="point contrastive" cx="332.6" cy="312.4" r="3.5"/>
<circle class="point contrastive" cx="361.4" cy="310.8" r="3.5"/>
<circle class="point contrastive" cx="390.1" cy="310.2" r="3.5"/>
<circle class="point contrastive" cx="418.8" cy="309.4" r="3.5"/>
<circle class="point contrastive" cx="447.6" cy="309.5" r="3.5"/>
<circle class="point contrastive" cx="476.3" cy="308.6" r="3.5"/>
<circle class="point contrastive" cx="505.1" cy="309.2" r="3.5"/>
<circle class="point contrastive" cx="533.8" cy="309.7" r="3.5"/>
<circle class="point contrastive" cx="562.5" cy="310.5" r="3.5"/>
<circle class="point contrastive" cx="591.3" cy="311.6" r="3.5"/>
<circle class="point contrastive" cx="620.0" cy="310.3" r="3.5"/>
<line class="series contrastive" x1="620" y1="310.3" x2="634" y2="310.3"/>
<text class="text label" x="640" y="308.3">Contrastive</text>
<text class="text muted small" x="640" y="324.3">20.4% at k=20</text>
<path class="band groupmean" d="M 74.0 342.4 L 102.7 325.6 L 131.5 311.9 L 160.2 301.6 L 188.9 291.8 L 217.7 285.2 L 246.4 277.6 L 275.2 270.6 L 303.9 264.6 L 332.6 260.5 L 361.4 255.8 L 390.1 253.5 L 418.8 251.4 L 447.6 248.4 L 476.3 247.6 L 505.1 245.5 L 533.8 248.0 L 562.5 249.0 L 591.3 249.7 L 620.0 246.5 L 620.0 256.1 L 591.3 258.3 L 562.5 256.9 L 533.8 255.7 L 505.1 254.9 L 476.3 255.0 L 447.6 254.3 L 418.8 258.2 L 390.1 259.4 L 361.4 262.0 L 332.6 265.6 L 303.9 269.3 L 275.2 274.3 L 246.4 281.5 L 217.7 287.8 L 188.9 294.5 L 160.2 303.7 L 131.5 313.8 L 102.7 327.1 L 74.0 343.3 Z"/>
<path class="series groupmean" d="M 74.0 342.9 L 102.7 326.3 L 131.5 312.8 L 160.2 302.6 L 188.9 293.1 L 217.7 286.5 L 246.4 279.6 L 275.2 272.4 L 303.9 266.9 L 332.6 263.1 L 361.4 258.9 L 390.1 256.5 L 418.8 254.8 L 447.6 251.4 L 476.3 251.3 L 505.1 250.2 L 533.8 251.8 L 562.5 253.0 L 591.3 254.0 L 620.0 251.3"/>
<rect class="point groupmean" x="70.5" y="339.4" width="7" height="7"/>
<rect class="point groupmean" x="99.2" y="322.8" width="7" height="7"/>
<rect class="point groupmean" x="128.0" y="309.3" width="7" height="7"/>
<rect class="point groupmean" x="156.7" y="299.1" width="7" height="7"/>
<rect class="point groupmean" x="185.4" y="289.6" width="7" height="7"/>
<rect class="point groupmean" x="214.2" y="283.0" width="7" height="7"/>
<rect class="point groupmean" x="242.9" y="276.1" width="7" height="7"/>
<rect class="point groupmean" x="271.7" y="268.9" width="7" height="7"/>
<rect class="point groupmean" x="300.4" y="263.4" width="7" height="7"/>
<rect class="point groupmean" x="329.1" y="259.6" width="7" height="7"/>
<rect class="point groupmean" x="357.9" y="255.4" width="7" height="7"/>
<rect class="point groupmean" x="386.6" y="253.0" width="7" height="7"/>
<rect class="point groupmean" x="415.3" y="251.3" width="7" height="7"/>
<rect class="point groupmean" x="444.1" y="247.9" width="7" height="7"/>
<rect class="point groupmean" x="472.8" y="247.8" width="7" height="7"/>
<rect class="point groupmean" x="501.6" y="246.7" width="7" height="7"/>
<rect class="point groupmean" x="530.3" y="248.3" width="7" height="7"/>
<rect class="point groupmean" x="559.0" y="249.5" width="7" height="7"/>
<rect class="point groupmean" x="587.8" y="250.5" width="7" height="7"/>
<rect class="point groupmean" x="616.5" y="247.8" width="7" height="7"/>
<line class="series groupmean" x1="620" y1="251.3" x2="634" y2="251.3"/>
<text class="text label" x="640" y="249.3">Group-mean orthogonality</text>
<text class="text muted small" x="640" y="265.3">40.0% at k=20</text>
<path class="band reverse" d="M 74.0 334.3 L 102.7 304.0 L 131.5 278.7 L 160.2 252.3 L 188.9 227.0 L 217.7 206.1 L 246.4 189.9 L 275.2 172.2 L 303.9 157.6 L 332.6 145.8 L 361.4 134.6 L 390.1 126.1 L 418.8 116.8 L 447.6 110.1 L 476.3 106.1 L 505.1 100.7 L 533.8 99.3 L 562.5 94.9 L 591.3 87.2 L 620.0 84.3 L 620.0 89.2 L 591.3 92.8 L 562.5 97.4 L 533.8 103.5 L 505.1 105.4 L 476.3 110.9 L 447.6 115.4 L 418.8 121.6 L 390.1 128.5 L 361.4 137.6 L 332.6 148.0 L 303.9 160.9 L 275.2 174.4 L 246.4 192.5 L 217.7 209.3 L 188.9 230.2 L 160.2 253.8 L 131.5 280.3 L 102.7 305.7 L 74.0 334.8 Z"/>
<path class="series reverse" d="M 74.0 334.5 L 102.7 304.8 L 131.5 279.5 L 160.2 253.0 L 188.9 228.6 L 217.7 207.7 L 246.4 191.2 L 275.2 173.3 L 303.9 159.3 L 332.6 146.9 L 361.4 136.1 L 390.1 127.3 L 418.8 119.2 L 447.6 112.8 L 476.3 108.5 L 505.1 103.0 L 533.8 101.4 L 562.5 96.2 L 591.3 90.0 L 620.0 86.7"/>
<path class="point reverse" d="M 74.0 329.5 L 79.0 334.5 L 74.0 339.5 L 69.0 334.5 Z"/>
<path class="point reverse" d="M 102.7 299.8 L 107.7 304.8 L 102.7 309.8 L 97.7 304.8 Z"/>
<path class="point reverse" d="M 131.5 274.5 L 136.5 279.5 L 131.5 284.5 L 126.5 279.5 Z"/>
<path class="point reverse" d="M 160.2 248.0 L 165.2 253.0 L 160.2 258.0 L 155.2 253.0 Z"/>
<path class="point reverse" d="M 188.9 223.6 L 193.9 228.6 L 188.9 233.6 L 183.9 228.6 Z"/>
<path class="point reverse" d="M 217.7 202.7 L 222.7 207.7 L 217.7 212.7 L 212.7 207.7 Z"/>
<path class="point reverse" d="M 246.4 186.2 L 251.4 191.2 L 246.4 196.2 L 241.4 191.2 Z"/>
<path class="point reverse" d="M 275.2 168.3 L 280.2 173.3 L 275.2 178.3 L 270.2 173.3 Z"/>
<path class="point reverse" d="M 303.9 154.3 L 308.9 159.3 L 303.9 164.3 L 298.9 159.3 Z"/>
<path class="point reverse" d="M 332.6 141.9 L 337.6 146.9 L 332.6 151.9 L 327.6 146.9 Z"/>
<path class="point reverse" d="M 361.4 131.1 L 366.4 136.1 L 361.4 141.1 L 356.4 136.1 Z"/>
<path class="point reverse" d="M 390.1 122.3 L 395.1 127.3 L 390.1 132.3 L 385.1 127.3 Z"/>
<path class="point reverse" d="M 418.8 114.2 L 423.8 119.2 L 418.8 124.2 L 413.8 119.2 Z"/>
<path class="point reverse" d="M 447.6 107.8 L 452.6 112.8 L 447.6 117.8 L 442.6 112.8 Z"/>
<path class="point reverse" d="M 476.3 103.5 L 481.3 108.5 L 476.3 113.5 L 471.3 108.5 Z"/>
<path class="point reverse" d="M 505.1 98.0 L 510.1 103.0 L 505.1 108.0 L 500.1 103.0 Z"/>
<path class="point reverse" d="M 533.8 96.4 L 538.8 101.4 L 533.8 106.4 L 528.8 101.4 Z"/>
<path class="point reverse" d="M 562.5 91.2 L 567.5 96.2 L 562.5 101.2 L 557.5 96.2 Z"/>
<path class="point reverse" d="M 591.3 85.0 L 596.3 90.0 L 591.3 95.0 L 586.3 90.0 Z"/>
<path class="point reverse" d="M 620.0 81.7 L 625.0 86.7 L 620.0 91.7 L 615.0 86.7 Z"/>
<line class="series reverse" x1="620" y1="86.7" x2="634" y2="86.7"/>
<text class="text label" x="640" y="84.7">Reverse-ridge orthogonality</text>
<text class="text muted small" x="640" y="100.7">94.5% at k=20</text>
<rect class="bar contrastive" x="826" y="79.1" width="48" height="292.9"/>
<line class="axis" x1="850" y1="78.6" x2="850" y2="79.6"/>
<line class="axis" x1="844" y1="78.6" x2="856" y2="78.6"/>
<line class="axis" x1="844" y1="79.6" x2="856" y2="79.6"/>
<circle class="point contrastive" cx="850" cy="79.1" r="4"/>
<text class="text label" x="850" y="69.1" text-anchor="middle">97.0%</text>
<text class="text small" x="850" y="394" text-anchor="middle">Contrastive</text>
<rect class="bar groupmean" x="926" y="79.7" width="48" height="292.3"/>
<line class="axis" x1="950" y1="78.9" x2="950" y2="80.4"/>
<line class="axis" x1="944" y1="78.9" x2="956" y2="78.9"/>
<line class="axis" x1="944" y1="80.4" x2="956" y2="80.4"/>
<rect class="point groupmean" x="946" y="75.7" width="8" height="8"/>
<text class="text label" x="950" y="69.7" text-anchor="middle">96.8%</text>
<text class="text small" x="950" y="394" text-anchor="middle">Group-mean</text>
<rect class="bar reverse" x="1026" y="79.5" width="48" height="292.5"/>
<line class="axis" x1="1050" y1="79.2" x2="1050" y2="79.8"/>
<line class="axis" x1="1044" y1="79.2" x2="1056" y2="79.2"/>
<line class="axis" x1="1044" y1="79.8" x2="1056" y2="79.8"/>
<path class="point reverse" d="M 1050 74.0 L 1055.5 79.5 L 1050 85.0 L 1044.5 79.5 Z"/>
<text class="text label" x="1050" y="69.5" text-anchor="middle">96.9%</text>
<text class="text small" x="1050" y="394" text-anchor="middle">Reverse-ridge</text>
<text class="text muted label" x="960.0" y="436" text-anchor="middle">Training objective</text>
</svg>
